<svg width="36" height="38" viewBox="0 0 36 38" fill="none" xmlns="http://www.w3.org/2000/svg">
<path d="M21.5257 12.8011C34.3051 12.3996 41.0963 31.5993 19.5156 35.1983" stroke="url(#paint0_linear_1531_275)" stroke-width="4.00009" stroke-dasharray="3.2 1.6"/>
<path d="M0 27.507L4.4162 21.8238C7.71876 25.0494 12.5958 26.2014 16.5128 26.2014C20.1993 26.2014 22.7723 25.395 22.7723 23.8206C22.7723 21.939 20.5449 21.7854 13.671 21.0174C7.44994 20.3646 1.88169 18.9054 1.88169 13.2222C1.88169 7.38537 7.44994 3.96777 15.6679 3.96777C21.9274 3.96777 27.4957 5.88777 30.3374 8.49897L25.9212 13.7598C23.6171 11.571 19.5081 10.1502 15.0919 10.1502C11.5205 10.1502 9.48524 10.995 9.48524 12.4542C9.48524 13.9134 11.4821 14.2206 17.972 14.9118C24.3467 15.6414 30.7982 16.8702 30.7982 23.0142C30.7982 29.427 24.6539 32.4606 16.0519 32.4606C10.0613 32.4606 2.95694 30.5406 0 27.507Z" fill="#F4F3EF"/>
<path d="M16.6953 0V37.6" stroke="#F4F3EF" stroke-width="4.80011"/>
<defs>
<linearGradient id="paint0_linear_1531_275" x1="20.5024" y1="12.8409" x2="40.2975" y2="22.0003" gradientUnits="userSpaceOnUse">
<stop offset="0.133835" stop-color="#3827C9" stop-opacity="0"/>
<stop offset="0.190736" stop-color="#104825"/>
<stop offset="1" stop-color="#60F45D"/>
</linearGradient>
</defs>
</svg>
